Coordinates
version=1
nRows=11
nColumns=40
inDegrees=yes

Units are S.I. units (second, meters, Newtons, ...)
Angles are in degrees.

endheader
time	pelvis_tilt	pelvis_list	pelvis_rotation	pelvis_tx	pelvis_ty	pelvis_tz	hip_flexion_r	hip_adduction_r	hip_rotation_r	knee_angle_r	knee_angle_r_beta	ankle_angle_r	subtalar_angle_r	mtp_angle_r	hip_flexion_l	hip_adduction_l	hip_rotation_l	knee_angle_l	knee_angle_l_beta	ankle_angle_l	subtalar_angle_l	mtp_angle_l	lumbar_extension	lumbar_bending	lumbar_rotation	arm_flex_r	arm_add_r	arm_rot_r	elbow_flex_r	pro_sup_r	wrist_flex_r	wrist_dev_r	arm_flex_l	arm_add_l	arm_rot_l	elbow_flex_l	pro_sup_l	wrist_flex_l	wrist_dev_l
     23.58500000	     -6.62077730	     -6.96137197	      4.40994786	      0.94652797	      0.91734022	      0.48540078	      3.42747713	      6.31541899	    -15.14383244	     11.20040983	     11.20040983	     17.18198209	      6.95661125	     -2.40845349	     35.42301875	     -8.78002394	     -3.98258790	     18.77778050	     18.77778050	      4.43213578	     -7.24460305	      8.18844332	    -10.36639685	      6.66596109	      2.91391786	     35.96370372	    -20.16445839	     -2.93516604	     94.20103090	     44.49646046	      0.00000000	      0.00000000	    -11.80145388	     -6.67121769	      3.50159681	     28.05652932	     45.24297787	      0.00000000	      0.00000000
     23.59721429	     -6.65711359	     -6.95723556	      4.17066660	      0.94809446	      0.91621922	      0.48362572	      2.72134047	      6.24308279	    -14.91417607	     11.03224023	     11.03224023	     17.64767429	      7.19970262	     -2.42446613	     35.04085204	     -8.77464282	     -4.33112691	     19.43537183	     19.43537183	      3.75395469	     -7.87610436	      8.15224663	    -10.03130725	      6.64961651	      3.06074009	     35.69884888	    -19.92850267	     -2.92240945	     94.54397941	     44.48774055	      0.00000000	      0.00000000	    -12.44503382	     -6.59676043	      3.54809389	     28.00696286	     45.22468719	      0.00000000	      0.00000000
     23.60942857	     -6.68898683	     -6.94977212	      3.94133452	      0.94971927	      0.91518040	      0.48174659	      2.04873676	      6.13944116	    -14.69867876	     10.93901420	     10.93901420	     18.02102708	      7.40936907	     -2.44065542	     34.63963091	     -8.76017158	     -4.58848259	     20.10415097	     20.10415097	      3.12682945	     -8.42056234	      8.16902825	     -9.70802043	      6.61952430	      3.15345435	     35.36716643	    -19.74989856	     -2.90510783	     94.77924829	     44.48036487	      0.00000000	      0.00000000	    -12.97964689	     -6.55804921	      3.55831202	     27.96017320	     45.21376851	      0.00000000	      0.00000000
     23.62164286	     -6.59552346	     -6.94045466	      3.82680758	      0.95158087	      0.91435026	      0.47945635	      1.13045018	      5.99755531	    -14.91582714	     10.70733310	     10.70733310	     18.72591758	      8.34112863	     -1.28944457	     34.02769342	     -8.49344225	     -3.94048864	     20.55121808	     20.55121808	      1.49338916	    -10.50043549	      5.97116791	     -9.61739829	      6.61515551	      3.52929335	     34.12432108	    -19.73579824	     -3.77166115	     96.91697035	     44.47167237	      0.00000000	      0.00000000	    -13.76442046	     -6.77922582	      3.63759818	     29.68046725	     45.18626206	      0.00000000	      0.00000000
     23.63385714	     -6.63332558	     -6.85062636	      3.63025523	      0.95323471	      0.91353954	      0.47732077	      0.54320762	      5.75936645	    -14.71413575	     10.75810427	     10.75810427	     19.06628042	      8.44122382	     -1.25097055	     33.72791038	     -8.37359045	     -4.02932989	     21.38463502	     21.38463502	      1.27394469	    -11.03507047	      5.74119280	     -9.32173421	      6.47199708	      3.55472899	     33.55988560	    -19.56485835	     -3.73122051	     96.89531690	     44.47318477	      0.00000000	      0.00000000	    -14.04603184	     -6.78369737	      3.67606633	     29.60883975	     45.17709210	      0.00000000	      0.00000000
     23.64607143	     -6.65877018	     -6.72077775	      3.46555170	      0.95480702	      0.91304390	      0.47501209	      0.00230015	      5.44856779	    -14.50497798	     10.90249096	     10.90249096	     19.31531015	      8.51717842	     -1.24680865	     33.35734370	     -8.17813371	     -4.03795200	     22.05186211	     22.05186211	      1.29929636	    -11.50671156	      5.55049871	     -9.05004862	      6.32008276	      3.53053297	     32.95471429	    -19.44032248	     -3.68820188	     96.84721123	     44.47297938	      0.00000000	      0.00000000	    -14.25691836	     -6.76347223	      3.67888365	     29.57811701	     45.17370252	      0.00000000	      0.00000000
     23.65828571	     -6.65521267	     -6.58008028	      3.35385458	      0.95625576	      0.91288186	      0.47255185	     -0.43800931	      5.08290726	    -14.40162253	     11.26361637	     11.26361637	     19.50265013	      8.51987901	     -1.20747218	     33.04609047	     -7.93031014	     -3.88586885	     22.80472869	     22.80472869	      1.46338323	    -12.12325673	      5.25334824	     -8.89226722	      6.13313801	      3.46082138	     32.12840855	    -19.32608173	     -3.67553115	     96.75006640	     44.47523606	      0.00000000	      0.00000000	    -14.27552320	     -6.83961432	      3.64485556	     29.64280788	     45.17907456	      0.00000000	      0.00000000
     23.67050000	     -6.83904463	     -6.42066490	      3.23625371	      0.95724676	      0.91270511	      0.46995125	     -0.23184727	      4.54227760	    -14.42544844	     12.44149442	     12.44149442	     19.90660205	      8.44568919	     -1.04513184	     32.90465437	     -7.57121413	     -3.50151752	     23.37942926	     23.37942926	      1.54528228	    -13.17629565	      4.74305899	     -8.57088692	      5.90481158	      3.69155112	     31.03628206	    -19.52681038	     -4.13344116	     96.76245775	     44.49692930	      0.00000000	      0.00000000	    -14.07148129	     -6.93258030	      3.48485692	     29.96975010	     45.20958841	      0.00000000	      0.00000000
     23.68271429	     -6.74141143	     -6.26790950	      3.19301292	      0.95845004	      0.91341422	      0.46735472	     -0.53758999	      4.10688537	    -14.35814320	     13.18236730	     13.18236730	     19.91352514	      8.29078962	     -1.05641000	     32.40315742	     -7.29937839	     -3.36907996	     23.86908298	     23.86908298	      2.08454162	    -13.56755109	      4.38782395	     -8.58940043	      5.68225421	      3.52815427	     29.99006071	    -19.38027601	     -4.10190774	     96.52817620	     44.50233777	      0.00000000	      0.00000000	    -13.83514478	     -7.03232247	      3.42407618	     30.05260552	     45.22345571	      0.00000000	      0.00000000
     23.69492857	     -6.96105726	     -6.03702601	      3.06377810	      0.95898928	      0.91393066	      0.46464622	      0.18214623	      3.36124934	    -14.29004622	     15.16340354	     15.16340354	     20.02600713	      7.81805332	     -1.33909437	     32.17198431	     -6.92938474	     -3.33678229	     24.14897688	     24.14897688	      2.52221923	    -14.01283231	      4.02649690	     -8.35949276	      5.38147695	      3.74215472	     28.81723279	    -19.62028139	     -4.49768304	     96.15553526	     44.53263640	      0.00000000	      0.00000000	    -13.28677706	     -7.14599944	      3.20389560	     30.20931073	     45.26906303	      0.00000000	      0.00000000
     23.70714286	     -6.83243033	     -5.97664116	      3.04533129	      0.95980391	      0.91526147	      0.46204070	      0.29381895	      2.91401464	    -14.22067948	     16.65302071	     16.65302071	     19.80432975	      7.41793775	     -1.60162061	     31.55059556	     -6.74109973	     -3.20159643	     24.38888792	     24.38888792	      3.25652865	    -14.22013192	      3.68919171	     -8.47229508	      5.22509503	      3.57863179	     27.63306857	    -19.49499594	     -4.47054602	     95.74507415	     44.54385982	      0.00000000	      0.00000000	    -12.76343960	     -7.26934122	      3.09693396	     30.32390663	     45.29482253	      0.00000000	      0.00000000
